<svg width="168" height="13" viewBox="0 0 168 13" fill="none" xmlns="http://www.w3.org/2000/svg">
    <path d="M3.5 12.25V10.5H1.75V8.75H0V3.5H1.75V1.75H3.5V0H10.5V1.75H12.25V3.5H8.75V1.75H5.25V3.5H3.5V8.75H5.25V10.5H8.75V8.75H12.25V10.5H10.5V12.25H3.5ZM17.15 12.25V10.5H15.4V1.75H17.15V0H25.9V1.75H27.65V10.5H25.9V12.25H17.15ZM18.9 10.5H24.15V1.75H18.9V10.5ZM30.8 12.25V0H34.3V1.75H36.05V3.5H37.8V5.25H39.55V0H43.05V12.25H39.55V8.75H37.8V7H36.05V5.25H34.3V12.25H30.8ZM51.45 12.25V1.75H47.95V0H58.45V1.75H54.95V12.25H51.45ZM63.35 12.25V10.5H66.85V1.75H63.35V0H73.85V1.75H70.35V10.5H73.85V12.25H63.35ZM77 12.25V0H80.5V1.75H82.25V3.5H84V5.25H85.75V0H89.25V12.25H85.75V8.75H84V7H82.25V5.25H80.5V12.25H77ZM94.15 12.25V10.5H92.4V0H95.9V10.5H101.15V0H104.65V10.5H102.9V12.25H94.15ZM107.8 12.25V3.5H109.55V1.75H111.3V0H116.55V1.75H118.3V3.5H120.05V12.25H116.55V8.75H111.3V12.25H107.8ZM111.3 7H116.55V3.5H114.8V1.75H113.05V3.5H111.3V7ZM123.2 12.25V0H133.7V1.75H135.45V7H131.95V8.75H133.7V10.5H135.45V12.25H130.2V10.5H128.45V8.75H126.7V12.25H123.2ZM126.7 7H130.2V5.25H131.95V1.75H126.7V7ZM161 12.25V8.75H154V3.5H161V0H162.75V1.75H164.5V3.5H166.25V5.25H168V7H166.25V8.75H164.5V10.5H162.75V12.25H161Z" fill="black" />
    <path d="M3.5 12.25H3V12.75H3.5V12.25ZM3.5 10.5H4V10H3.5V10.5ZM1.75 10.5H1.25V11H1.75V10.5ZM1.75 8.75H2.25V8.25H1.75V8.75ZM0 8.75H-0.5V9.25H0V8.75ZM0 3.5V3H-0.5V3.5H0ZM1.75 3.5V4H2.25V3.5H1.75ZM1.75 1.75V1.25H1.25V1.75H1.75ZM3.5 1.75V2.25H4V1.75H3.5ZM3.5 0V-0.5H3V0H3.5ZM10.5 0H11V-0.5H10.5V0ZM10.5 1.75H10V2.25H10.5V1.75ZM12.25 1.75H12.75V1.25H12.25V1.75ZM12.25 3.5V4H12.75V3.5H12.25ZM8.75 3.5H8.25V4H8.75V3.5ZM8.75 1.75H9.25V1.25H8.75V1.75ZM5.25 1.75V1.25H4.75V1.75H5.25ZM5.25 3.5V4H5.75V3.5H5.25ZM3.5 3.5V3H3V3.5H3.5ZM3.5 8.75H3V9.25H3.5V8.75ZM5.25 8.75H5.75V8.25H5.25V8.75ZM5.25 10.5H4.75V11H5.25V10.5ZM8.75 10.5V11H9.25V10.5H8.75ZM8.75 8.75V8.25H8.25V8.75H8.75ZM12.25 8.75H12.75V8.25H12.25V8.75ZM12.25 10.5V11H12.75V10.5H12.25ZM10.5 10.5V10H10V10.5H10.5ZM10.5 12.25V12.75H11V12.25H10.5ZM4 12.25V10.5H3V12.25H4ZM3.5 10H1.75V11H3.5V10ZM2.25 10.5V8.75H1.25V10.5H2.25ZM1.75 8.25H0V9.25H1.75V8.25ZM0.5 8.75V3.5H-0.5V8.75H0.5ZM0 4H1.75V3H0V4ZM2.25 3.5V1.75H1.25V3.5H2.25ZM1.75 2.25H3.5V1.25H1.75V2.25ZM4 1.75V0H3V1.75H4ZM3.5 0.5H10.5V-0.5H3.5V0.5ZM10 0V1.75H11V0H10ZM10.5 2.25H12.25V1.25H10.5V2.25ZM11.75 1.75V3.5H12.75V1.75H11.75ZM12.25 3H8.75V4H12.25V3ZM9.25 3.5V1.75H8.25V3.5H9.25ZM8.75 1.25H5.25V2.25H8.75V1.25ZM4.75 1.75V3.5H5.75V1.75H4.75ZM5.25 3H3.5V4H5.25V3ZM3 3.5V8.75H4V3.5H3ZM3.5 9.25H5.25V8.25H3.5V9.25ZM4.75 8.75V10.5H5.75V8.75H4.75ZM5.25 11H8.75V10H5.25V11ZM9.25 10.5V8.75H8.25V10.5H9.25ZM8.75 9.25H12.25V8.25H8.75V9.25ZM11.75 8.75V10.5H12.75V8.75H11.75ZM12.25 10H10.5V11H12.25V10ZM10 10.5V12.25H11V10.5H10ZM10.5 11.75H3.5V12.75H10.5V11.75ZM17.15 12.25H16.65V12.75H17.15V12.25ZM17.15 10.5H17.65V10H17.15V10.5ZM15.4 10.5H14.9V11H15.4V10.5ZM15.4 1.75V1.25H14.9V1.75H15.4ZM17.15 1.75V2.25H17.65V1.75H17.15ZM17.15 0V-0.5H16.65V0H17.15ZM25.9 0H26.4V-0.5H25.9V0ZM25.9 1.75H25.4V2.25H25.9V1.75ZM27.65 1.75H28.15V1.25H27.65V1.75ZM27.65 10.5V11H28.15V10.5H27.65ZM25.9 10.5V10H25.4V10.5H25.9ZM25.9 12.25V12.75H26.4V12.25H25.9ZM18.9 10.5H18.4V11H18.9V10.5ZM24.15 10.5V11H24.65V10.5H24.15ZM24.15 1.75H24.65V1.25H24.15V1.75ZM18.9 1.75V1.25H18.4V1.75H18.9ZM17.65 12.25V10.5H16.65V12.25H17.65ZM17.15 10H15.4V11H17.15V10ZM15.9 10.5V1.75H14.9V10.5H15.9ZM15.4 2.25H17.15V1.25H15.4V2.25ZM17.65 1.75V0H16.65V1.75H17.65ZM17.15 0.5H25.9V-0.5H17.15V0.5ZM25.4 0V1.75H26.4V0H25.4ZM25.9 2.25H27.65V1.25H25.9V2.25ZM27.15 1.75V10.5H28.15V1.75H27.15ZM27.65 10H25.9V11H27.65V10ZM25.4 10.5V12.25H26.4V10.5H25.4ZM25.9 11.75H17.15V12.75H25.9V11.75ZM18.9 11H24.15V10H18.9V11ZM24.65 10.5V1.75H23.65V10.5H24.65ZM24.15 1.25H18.9V2.25H24.15V1.25ZM18.4 1.75V10.5H19.4V1.75H18.4ZM30.8 12.25H30.3V12.75H30.8V12.25ZM30.8 0V-0.5H30.3V0H30.8ZM34.3 0H34.8V-0.5H34.3V0ZM34.3 1.75H33.8V2.25H34.3V1.75ZM36.05 1.75H36.55V1.25H36.05V1.75ZM36.05 3.5H35.55V4H36.05V3.5ZM37.8 3.5H38.3V3H37.8V3.5ZM37.8 5.25H37.3V5.75H37.8V5.25ZM39.55 5.25V5.75H40.05V5.25H39.55ZM39.55 0V-0.5H39.05V0H39.55ZM43.05 0H43.55V-0.5H43.05V0ZM43.05 12.25V12.75H43.55V12.25H43.05ZM39.55 12.25H39.05V12.75H39.55V12.25ZM39.55 8.75H40.05V8.25H39.55V8.75ZM37.8 8.75H37.3V9.25H37.8V8.75ZM37.8 7H38.3V6.5H37.8V7ZM36.05 7H35.55V7.5H36.05V7ZM36.05 5.25H36.55V4.75H36.05V5.25ZM34.3 5.25V4.75H33.8V5.25H34.3ZM34.3 12.25V12.75H34.8V12.25H34.3ZM31.3 12.25V0H30.3V12.25H31.3ZM30.8 0.5H34.3V-0.5H30.8V0.5ZM33.8 0V1.75H34.8V0H33.8ZM34.3 2.25H36.05V1.25H34.3V2.25ZM35.55 1.75V3.5H36.55V1.75H35.55ZM36.05 4H37.8V3H36.05V4ZM37.3 3.5V5.25H38.3V3.5H37.3ZM37.8 5.75H39.55V4.75H37.8V5.75ZM40.05 5.25V0H39.05V5.25H40.05ZM39.55 0.5H43.05V-0.5H39.55V0.5ZM42.55 0V12.25H43.55V0H42.55ZM43.05 11.75H39.55V12.75H43.05V11.75ZM40.05 12.25V8.75H39.05V12.25H40.05ZM39.55 8.25H37.8V9.25H39.55V8.25ZM38.3 8.75V7H37.3V8.75H38.3ZM37.8 6.5H36.05V7.5H37.8V6.5ZM36.55 7V5.25H35.55V7H36.55ZM36.05 4.75H34.3V5.75H36.05V4.75ZM33.8 5.25V12.25H34.8V5.25H33.8ZM34.3 11.75H30.8V12.75H34.3V11.75ZM51.45 12.25H50.95V12.75H51.45V12.25ZM51.45 1.75H51.95V1.25H51.45V1.75ZM47.95 1.75H47.45V2.25H47.95V1.75ZM47.95 0V-0.5H47.45V0H47.95ZM58.45 0H58.95V-0.5H58.45V0ZM58.45 1.75V2.25H58.95V1.75H58.45ZM54.95 1.75V1.25H54.45V1.75H54.95ZM54.95 12.25V12.75H55.45V12.25H54.95ZM51.95 12.25V1.75H50.95V12.25H51.95ZM51.45 1.25H47.95V2.25H51.45V1.25ZM48.45 1.75V0H47.45V1.75H48.45ZM47.95 0.5H58.45V-0.5H47.95V0.5ZM57.95 0V1.75H58.95V0H57.95ZM58.45 1.25H54.95V2.25H58.45V1.25ZM54.45 1.75V12.25H55.45V1.75H54.45ZM54.95 11.75H51.45V12.75H54.95V11.75ZM63.35 12.25H62.85V12.75H63.35V12.25ZM63.35 10.5V10H62.85V10.5H63.35ZM66.85 10.5V11H67.35V10.5H66.85ZM66.85 1.75H67.35V1.25H66.85V1.75ZM63.35 1.75H62.85V2.25H63.35V1.75ZM63.35 0V-0.5H62.85V0H63.35ZM73.85 0H74.35V-0.5H73.85V0ZM73.85 1.75V2.25H74.35V1.75H73.85ZM70.35 1.75V1.25H69.85V1.75H70.35ZM70.35 10.5H69.85V11H70.35V10.5ZM73.85 10.5H74.35V10H73.85V10.5ZM73.85 12.25V12.75H74.35V12.25H73.85ZM63.85 12.25V10.5H62.85V12.25H63.85ZM63.35 11H66.85V10H63.35V11ZM67.35 10.5V1.75H66.35V10.5H67.35ZM66.85 1.25H63.35V2.25H66.85V1.25ZM63.85 1.75V0H62.85V1.75H63.85ZM63.35 0.5H73.85V-0.5H63.35V0.5ZM73.35 0V1.75H74.35V0H73.35ZM73.85 1.25H70.35V2.25H73.85V1.25ZM69.85 1.75V10.5H70.85V1.75H69.85ZM70.35 11H73.85V10H70.35V11ZM73.35 10.5V12.25H74.35V10.5H73.35ZM73.85 11.75H63.35V12.75H73.85V11.75ZM77 12.25H76.5V12.75H77V12.25ZM77 0V-0.5H76.5V0H77ZM80.5 0H81V-0.5H80.5V0ZM80.5 1.75H80V2.25H80.5V1.75ZM82.25 1.75H82.75V1.25H82.25V1.75ZM82.25 3.5H81.75V4H82.25V3.5ZM84 3.5H84.5V3H84V3.5ZM84 5.25H83.5V5.75H84V5.25ZM85.75 5.25V5.75H86.25V5.25H85.75ZM85.75 0V-0.5H85.25V0H85.75ZM89.25 0H89.75V-0.5H89.25V0ZM89.25 12.25V12.75H89.75V12.25H89.25ZM85.75 12.25H85.25V12.75H85.75V12.25ZM85.75 8.75H86.25V8.25H85.75V8.75ZM84 8.75H83.5V9.25H84V8.75ZM84 7H84.5V6.5H84V7ZM82.25 7H81.75V7.5H82.25V7ZM82.25 5.25H82.75V4.75H82.25V5.25ZM80.5 5.25V4.75H80V5.25H80.5ZM80.5 12.25V12.75H81V12.25H80.5ZM77.5 12.25V0H76.5V12.25H77.5ZM77 0.5H80.5V-0.5H77V0.5ZM80 0V1.75H81V0H80ZM80.5 2.25H82.25V1.25H80.5V2.25ZM81.75 1.75V3.5H82.75V1.75H81.75ZM82.25 4H84V3H82.25V4ZM83.5 3.5V5.25H84.5V3.5H83.5ZM84 5.75H85.75V4.75H84V5.75ZM86.25 5.25V0H85.25V5.25H86.25ZM85.75 0.5H89.25V-0.5H85.75V0.5ZM88.75 0V12.25H89.75V0H88.75ZM89.25 11.75H85.75V12.75H89.25V11.75ZM86.25 12.25V8.75H85.25V12.25H86.25ZM85.75 8.25H84V9.25H85.75V8.25ZM84.5 8.75V7H83.5V8.75H84.5ZM84 6.5H82.25V7.5H84V6.5ZM82.75 7V5.25H81.75V7H82.75ZM82.25 4.75H80.5V5.75H82.25V4.75ZM80 5.25V12.25H81V5.25H80ZM80.5 11.75H77V12.75H80.5V11.75ZM94.15 12.25H93.65V12.75H94.15V12.25ZM94.15 10.5H94.65V10H94.15V10.5ZM92.4 10.5H91.9V11H92.4V10.5ZM92.4 0V-0.5H91.9V0H92.4ZM95.9 0H96.4V-0.5H95.9V0ZM95.9 10.5H95.4V11H95.9V10.5ZM101.15 10.5V11H101.65V10.5H101.15ZM101.15 0V-0.5H100.65V0H101.15ZM104.65 0H105.15V-0.5H104.65V0ZM104.65 10.5V11H105.15V10.5H104.65ZM102.9 10.5V10H102.4V10.5H102.9ZM102.9 12.25V12.75H103.4V12.25H102.9ZM94.65 12.25V10.5H93.65V12.25H94.65ZM94.15 10H92.4V11H94.15V10ZM92.9 10.5V0H91.9V10.5H92.9ZM92.4 0.5H95.9V-0.5H92.4V0.5ZM95.4 0V10.5H96.4V0H95.4ZM95.9 11H101.15V10H95.9V11ZM101.65 10.5V0H100.65V10.5H101.65ZM101.15 0.5H104.65V-0.5H101.15V0.5ZM104.15 0V10.5H105.15V0H104.15ZM104.65 10H102.9V11H104.65V10ZM102.4 10.5V12.25H103.4V10.5H102.4ZM102.9 11.75H94.15V12.75H102.9V11.75ZM107.8 12.25H107.3V12.75H107.8V12.25ZM107.8 3.5V3H107.3V3.5H107.8ZM109.55 3.5V4H110.05V3.5H109.55ZM109.55 1.75V1.25H109.05V1.75H109.55ZM111.3 1.75V2.25H111.8V1.75H111.3ZM111.3 0V-0.5H110.8V0H111.3ZM116.55 0H117.05V-0.5H116.55V0ZM116.55 1.75H116.05V2.25H116.55V1.75ZM118.3 1.75H118.8V1.25H118.3V1.75ZM118.3 3.5H117.8V4H118.3V3.5ZM120.05 3.5H120.55V3H120.05V3.5ZM120.05 12.25V12.75H120.55V12.25H120.05ZM116.55 12.25H116.05V12.75H116.55V12.25ZM116.55 8.75H117.05V8.25H116.55V8.75ZM111.3 8.75V8.25H110.8V8.75H111.3ZM111.3 12.25V12.75H111.8V12.25H111.3ZM111.3 7H110.8V7.5H111.3V7ZM116.55 7V7.5H117.05V7H116.55ZM116.55 3.5H117.05V3H116.55V3.5ZM114.8 3.5H114.3V4H114.8V3.5ZM114.8 1.75H115.3V1.25H114.8V1.75ZM113.05 1.75V1.25H112.55V1.75H113.05ZM113.05 3.5V4H113.55V3.5H113.05ZM111.3 3.5V3H110.8V3.5H111.3ZM108.3 12.25V3.5H107.3V12.25H108.3ZM107.8 4H109.55V3H107.8V4ZM110.05 3.5V1.75H109.05V3.5H110.05ZM109.55 2.25H111.3V1.25H109.55V2.25ZM111.8 1.75V0H110.8V1.75H111.8ZM111.3 0.5H116.55V-0.5H111.3V0.5ZM116.05 0V1.75H117.05V0H116.05ZM116.55 2.25H118.3V1.25H116.55V2.25ZM117.8 1.75V3.5H118.8V1.75H117.8ZM118.3 4H120.05V3H118.3V4ZM119.55 3.5V12.25H120.55V3.5H119.55ZM120.05 11.75H116.55V12.75H120.05V11.75ZM117.05 12.25V8.75H116.05V12.25H117.05ZM116.55 8.25H111.3V9.25H116.55V8.25ZM110.8 8.75V12.25H111.8V8.75H110.8ZM111.3 11.75H107.8V12.75H111.3V11.75ZM111.3 7.5H116.55V6.5H111.3V7.5ZM117.05 7V3.5H116.05V7H117.05ZM116.55 3H114.8V4H116.55V3ZM115.3 3.5V1.75H114.3V3.5H115.3ZM114.8 1.25H113.05V2.25H114.8V1.25ZM112.55 1.75V3.5H113.55V1.75H112.55ZM113.05 3H111.3V4H113.05V3ZM110.8 3.5V7H111.8V3.5H110.8ZM123.2 12.25H122.7V12.75H123.2V12.25ZM123.2 0V-0.5H122.7V0H123.2ZM133.7 0H134.2V-0.5H133.7V0ZM133.7 1.75H133.2V2.25H133.7V1.75ZM135.45 1.75H135.95V1.25H135.45V1.75ZM135.45 7V7.5H135.95V7H135.45ZM131.95 7V6.5H131.45V7H131.95ZM131.95 8.75H131.45V9.25H131.95V8.75ZM133.7 8.75H134.2V8.25H133.7V8.75ZM133.7 10.5H133.2V11H133.7V10.5ZM135.45 10.5H135.95V10H135.45V10.5ZM135.45 12.25V12.75H135.95V12.25H135.45ZM130.2 12.25H129.7V12.75H130.2V12.25ZM130.2 10.5H130.7V10H130.2V10.5ZM128.45 10.5H127.95V11H128.45V10.5ZM128.45 8.75H128.95V8.25H128.45V8.75ZM126.7 8.75V8.25H126.2V8.75H126.7ZM126.7 12.25V12.75H127.2V12.25H126.7ZM126.7 7H126.2V7.5H126.7V7ZM130.2 7V7.5H130.7V7H130.2ZM130.2 5.25V4.75H129.7V5.25H130.2ZM131.95 5.25V5.75H132.45V5.25H131.95ZM131.95 1.75H132.45V1.25H131.95V1.75ZM126.7 1.75V1.25H126.2V1.75H126.7ZM123.7 12.25V0H122.7V12.25H123.7ZM123.2 0.5H133.7V-0.5H123.2V0.5ZM133.2 0V1.75H134.2V0H133.2ZM133.7 2.25H135.45V1.25H133.7V2.25ZM134.95 1.75V7H135.95V1.75H134.95ZM135.45 6.5H131.95V7.5H135.45V6.5ZM131.45 7V8.75H132.45V7H131.45ZM131.95 9.25H133.7V8.25H131.95V9.25ZM133.2 8.75V10.5H134.2V8.75H133.2ZM133.7 11H135.45V10H133.7V11ZM134.95 10.5V12.25H135.95V10.5H134.95ZM135.45 11.75H130.2V12.75H135.45V11.75ZM130.7 12.25V10.5H129.7V12.25H130.7ZM130.2 10H128.45V11H130.2V10ZM128.95 10.5V8.75H127.95V10.5H128.95ZM128.45 8.25H126.7V9.25H128.45V8.25ZM126.2 8.75V12.25H127.2V8.75H126.2ZM126.7 11.75H123.2V12.75H126.7V11.75ZM126.7 7.5H130.2V6.5H126.7V7.5ZM130.7 7V5.25H129.7V7H130.7ZM130.2 5.75H131.95V4.75H130.2V5.75ZM132.45 5.25V1.75H131.45V5.25H132.45ZM131.95 1.25H126.7V2.25H131.95V1.25ZM126.2 1.75V7H127.2V1.75H126.2ZM161 12.25H160.5V12.75H161V12.25ZM161 8.75H161.5V8.25H161V8.75ZM154 8.75H153.5V9.25H154V8.75ZM154 3.5V3H153.5V3.5H154ZM161 3.5V4H161.5V3.5H161ZM161 0V-0.5H160.5V0H161ZM162.75 0H163.25V-0.5H162.75V0ZM162.75 1.75H162.25V2.25H162.75V1.75ZM164.5 1.75H165V1.25H164.5V1.75ZM164.5 3.5H164V4H164.5V3.5ZM166.25 3.5H166.75V3H166.25V3.5ZM166.25 5.25H165.75V5.75H166.25V5.25ZM168 5.25H168.5V4.75H168V5.25ZM168 7V7.5H168.5V7H168ZM166.25 7V6.5H165.75V7H166.25ZM166.25 8.75V9.25H166.75V8.75H166.25ZM164.5 8.75V8.25H164V8.75H164.5ZM164.5 10.5V11H165V10.5H164.5ZM162.75 10.5V10H162.25V10.5H162.75ZM162.75 12.25V12.75H163.25V12.25H162.75ZM161.5 12.25V8.75H160.5V12.25H161.5ZM161 8.25H154V9.25H161V8.25ZM154.5 8.75V3.5H153.5V8.75H154.5ZM154 4H161V3H154V4ZM161.5 3.5V0H160.5V3.5H161.5ZM161 0.5H162.75V-0.5H161V0.5ZM162.25 0V1.75H163.25V0H162.25ZM162.75 2.25H164.5V1.25H162.75V2.25ZM164 1.75V3.5H165V1.75H164ZM164.5 4H166.25V3H164.5V4ZM165.75 3.5V5.25H166.75V3.5H165.75ZM166.25 5.75H168V4.75H166.25V5.75ZM167.5 5.25V7H168.5V5.25H167.5ZM168 6.5H166.25V7.5H168V6.5ZM165.75 7V8.75H166.75V7H165.75ZM166.25 8.25H164.5V9.25H166.25V8.25ZM164 8.75V10.5H165V8.75H164ZM164.5 10H162.75V11H164.5V10ZM162.25 10.5V12.25H163.25V10.5H162.25ZM162.75 11.75H161V12.75H162.75V11.75Z" fill="black" />
</svg>