<svg width="40" height="35" viewBox="0 0 40 35" fill="none" xmlns="http://www.w3.org/2000/svg">
    <path d="M15 35V30H10V25H5V20H0V15H5V10H10V5H15V0H20V10H40V25H20V35H15Z" fill="black"></path>
    <path d="M15 35H14.5V35.5H15V35ZM15 30H15.5V29.5H15V30ZM10 30H9.5V30.5H10V30ZM10 25H10.5V24.5H10V25ZM5 25H4.5V25.5H5V25ZM5 20H5.5V19.5H5V20ZM0 20H-0.5V20.5H0V20ZM0 15V14.5H-0.5V15H0ZM5 15V15.5H5.5V15H5ZM5 10V9.5H4.5V10H5ZM10 10V10.5H10.5V10H10ZM10 5V4.5H9.5V5H10ZM15 5V5.5H15.5V5H15ZM15 0V-0.5H14.5V0H15ZM20 0H20.5V-0.5H20V0ZM20 10H19.5V10.5H20V10ZM40 10H40.5V9.5H40V10ZM40 25V25.5H40.5V25H40ZM20 25V24.5H19.5V25H20ZM20 35V35.5H20.5V35H20ZM15.5 35V30H14.5V35H15.5ZM15 29.5H10V30.5H15V29.5ZM10.5 30V25H9.5V30H10.5ZM10 24.5H5V25.5H10V24.5ZM5.5 25V20H4.5V25H5.5ZM5 19.5H0V20.5H5V19.5ZM0.5 20V15H-0.5V20H0.5ZM0 15.5H5V14.5H0V15.5ZM5.5 15V10H4.5V15H5.5ZM5 10.5H10V9.5H5V10.5ZM10.5 10V5H9.5V10H10.5ZM10 5.5H15V4.5H10V5.5ZM15.5 5V0H14.5V5H15.5ZM15 0.5H20V-0.5H15V0.5ZM19.5 0V10H20.5V0H19.5ZM20 10.5H40V9.5H20V10.5ZM39.5 10V25H40.5V10H39.5ZM40 24.5H20V25.5H40V24.5ZM19.5 25V35H20.5V25H19.5ZM20 34.5H15V35.5H20V34.5Z" fill="black"></path>
</svg>
    