<svg width="184" height="13" viewBox="0 0 184 13" fill="none" xmlns="http://www.w3.org/2000/svg">
<path d="M2.05 12.25V10.5H0.300003V8.75H3.8V10.5H9.05V7H2.05V5.25H0.300003V1.75H2.05V0H10.8V1.75H12.55V3.5H9.05V1.75H3.8V5.25H10.8V7H12.55V10.5H10.8V12.25H2.05ZM15.7 12.25V3.5H17.45V1.75H19.2V0H24.45V1.75H26.2V3.5H27.95V12.25H24.45V8.75H19.2V12.25H15.7ZM19.2 7H24.45V3.5H22.7V1.75H20.95V3.5H19.2V7ZM32.85 12.25V10.5H36.35V1.75H32.85V0H43.35V1.75H39.85V10.5H43.35V12.25H32.85ZM46.5 12.25V0H57V1.75H58.75V5.25H57V7H58.75V10.5H57V12.25H46.5ZM50 5.25H55.25V1.75H50V5.25ZM50 10.5H55.25V7H50V10.5ZM61.9 12.25V3.5H63.65V1.75H65.4V0H70.65V1.75H72.4V3.5H74.15V12.25H70.65V8.75H65.4V12.25H61.9ZM65.4 7H70.65V3.5H68.9V1.75H67.15V3.5H65.4V7ZM92.7 12.25V0H96.2V1.75H97.95V3.5H99.7V1.75H101.45V0H104.95V12.25H101.45V5.25H99.7V8.75H97.95V5.25H96.2V12.25H92.7ZM108.1 12.25V3.5H109.85V1.75H111.6V0H116.85V1.75H118.6V3.5H120.35V12.25H116.85V8.75H111.6V12.25H108.1ZM111.6 7H116.85V3.5H115.1V1.75H113.35V3.5H111.6V7ZM125.25 12.25V10.5H128.75V1.75H125.25V0H135.75V1.75H132.25V10.5H135.75V12.25H125.25ZM140.65 12.25V10.5H138.9V8.75H142.4V10.5H147.65V7H140.65V5.25H138.9V1.75H140.65V0H149.4V1.75H151.15V3.5H147.65V1.75H142.4V5.25H149.4V7H151.15V10.5H149.4V12.25H140.65ZM176.7 12.25V8.75H169.7V3.5H176.7V0H178.45V1.75H180.2V3.5H181.95V5.25H183.7V7H181.95V8.75H180.2V10.5H178.45V12.25H176.7Z" fill="black"></path>
<path d="M2.05 12.25H1.55V12.75H2.05V12.25ZM2.05 10.5H2.55V10H2.05V10.5ZM0.300003 10.5H-0.199997V11H0.300003V10.5ZM0.300003 8.75V8.25H-0.199997V8.75H0.300003ZM3.8 8.75H4.3V8.25H3.8V8.75ZM3.8 10.5H3.3V11H3.8V10.5ZM9.05 10.5V11H9.55V10.5H9.05ZM9.05 7H9.55V6.5H9.05V7ZM2.05 7H1.55V7.5H2.05V7ZM2.05 5.25H2.55V4.75H2.05V5.25ZM0.300003 5.25H-0.199997V5.75H0.300003V5.25ZM0.300003 1.75V1.25H-0.199997V1.75H0.300003ZM2.05 1.75V2.25H2.55V1.75H2.05ZM2.05 0V-0.5H1.55V0H2.05ZM10.8 0H11.3V-0.5H10.8V0ZM10.8 1.75H10.3V2.25H10.8V1.75ZM12.55 1.75H13.05V1.25H12.55V1.75ZM12.55 3.5V4H13.05V3.5H12.55ZM9.05 3.5H8.55V4H9.05V3.5ZM9.05 1.75H9.55V1.25H9.05V1.75ZM3.8 1.75V1.25H3.3V1.75H3.8ZM3.8 5.25H3.3V5.75H3.8V5.25ZM10.8 5.25H11.3V4.75H10.8V5.25ZM10.8 7H10.3V7.5H10.8V7ZM12.55 7H13.05V6.5H12.55V7ZM12.55 10.5V11H13.05V10.5H12.55ZM10.8 10.5V10H10.3V10.5H10.8ZM10.8 12.25V12.75H11.3V12.25H10.8ZM2.55 12.25V10.5H1.55V12.25H2.55ZM2.05 10H0.300003V11H2.05V10ZM0.800003 10.5V8.75H-0.199997V10.5H0.800003ZM0.300003 9.25H3.8V8.25H0.300003V9.25ZM3.3 8.75V10.5H4.3V8.75H3.3ZM3.8 11H9.05V10H3.8V11ZM9.55 10.5V7H8.55V10.5H9.55ZM9.05 6.5H2.05V7.5H9.05V6.5ZM2.55 7V5.25H1.55V7H2.55ZM2.05 4.75H0.300003V5.75H2.05V4.75ZM0.800003 5.25V1.75H-0.199997V5.25H0.800003ZM0.300003 2.25H2.05V1.25H0.300003V2.25ZM2.55 1.75V0H1.55V1.75H2.55ZM2.05 0.5H10.8V-0.5H2.05V0.5ZM10.3 0V1.75H11.3V0H10.3ZM10.8 2.25H12.55V1.25H10.8V2.25ZM12.05 1.75V3.5H13.05V1.75H12.05ZM12.55 3H9.05V4H12.55V3ZM9.55 3.5V1.75H8.55V3.5H9.55ZM9.05 1.25H3.8V2.25H9.05V1.25ZM3.3 1.75V5.25H4.3V1.75H3.3ZM3.8 5.75H10.8V4.75H3.8V5.75ZM10.3 5.25V7H11.3V5.25H10.3ZM10.8 7.5H12.55V6.5H10.8V7.5ZM12.05 7V10.5H13.05V7H12.05ZM12.55 10H10.8V11H12.55V10ZM10.3 10.5V12.25H11.3V10.5H10.3ZM10.8 11.75H2.05V12.75H10.8V11.75ZM15.7 12.25H15.2V12.75H15.7V12.25ZM15.7 3.5V3H15.2V3.5H15.7ZM17.45 3.5V4H17.95V3.5H17.45ZM17.45 1.75V1.25H16.95V1.75H17.45ZM19.2 1.75V2.25H19.7V1.75H19.2ZM19.2 0V-0.5H18.7V0H19.2ZM24.45 0H24.95V-0.5H24.45V0ZM24.45 1.75H23.95V2.25H24.45V1.75ZM26.2 1.75H26.7V1.25H26.2V1.75ZM26.2 3.5H25.7V4H26.2V3.5ZM27.95 3.5H28.45V3H27.95V3.5ZM27.95 12.25V12.75H28.45V12.25H27.95ZM24.45 12.25H23.95V12.75H24.45V12.25ZM24.45 8.75H24.95V8.25H24.45V8.75ZM19.2 8.75V8.25H18.7V8.75H19.2ZM19.2 12.25V12.75H19.7V12.25H19.2ZM19.2 7H18.7V7.5H19.2V7ZM24.45 7V7.5H24.95V7H24.45ZM24.45 3.5H24.95V3H24.45V3.5ZM22.7 3.5H22.2V4H22.7V3.5ZM22.7 1.75H23.2V1.25H22.7V1.75ZM20.95 1.75V1.25H20.45V1.75H20.95ZM20.95 3.5V4H21.45V3.5H20.95ZM19.2 3.5V3H18.7V3.5H19.2ZM16.2 12.25V3.5H15.2V12.25H16.2ZM15.7 4H17.45V3H15.7V4ZM17.95 3.5V1.75H16.95V3.5H17.95ZM17.45 2.25H19.2V1.25H17.45V2.25ZM19.7 1.75V0H18.7V1.75H19.7ZM19.2 0.5H24.45V-0.5H19.2V0.5ZM23.95 0V1.75H24.95V0H23.95ZM24.45 2.25H26.2V1.25H24.45V2.25ZM25.7 1.75V3.5H26.7V1.75H25.7ZM26.2 4H27.95V3H26.2V4ZM27.45 3.5V12.25H28.45V3.5H27.45ZM27.95 11.75H24.45V12.75H27.95V11.75ZM24.95 12.25V8.75H23.95V12.25H24.95ZM24.45 8.25H19.2V9.25H24.45V8.25ZM18.7 8.75V12.25H19.7V8.75H18.7ZM19.2 11.75H15.7V12.75H19.2V11.75ZM19.2 7.5H24.45V6.5H19.2V7.5ZM24.95 7V3.5H23.95V7H24.95ZM24.45 3H22.7V4H24.45V3ZM23.2 3.5V1.75H22.2V3.5H23.2ZM22.7 1.25H20.95V2.25H22.7V1.25ZM20.45 1.75V3.5H21.45V1.75H20.45ZM20.95 3H19.2V4H20.95V3ZM18.7 3.5V7H19.7V3.5H18.7ZM32.85 12.25H32.35V12.75H32.85V12.25ZM32.85 10.5V10H32.35V10.5H32.85ZM36.35 10.5V11H36.85V10.5H36.35ZM36.35 1.75H36.85V1.25H36.35V1.75ZM32.85 1.75H32.35V2.25H32.85V1.75ZM32.85 0V-0.5H32.35V0H32.85ZM43.35 0H43.85V-0.5H43.35V0ZM43.35 1.75V2.25H43.85V1.75H43.35ZM39.85 1.75V1.25H39.35V1.75H39.85ZM39.85 10.5H39.35V11H39.85V10.5ZM43.35 10.5H43.85V10H43.35V10.5ZM43.35 12.25V12.75H43.85V12.25H43.35ZM33.35 12.25V10.5H32.35V12.25H33.35ZM32.85 11H36.35V10H32.85V11ZM36.85 10.5V1.75H35.85V10.5H36.85ZM36.35 1.25H32.85V2.25H36.35V1.25ZM33.35 1.75V0H32.35V1.75H33.35ZM32.85 0.5H43.35V-0.5H32.85V0.5ZM42.85 0V1.75H43.85V0H42.85ZM43.35 1.25H39.85V2.25H43.35V1.25ZM39.35 1.75V10.5H40.35V1.75H39.35ZM39.85 11H43.35V10H39.85V11ZM42.85 10.5V12.25H43.85V10.5H42.85ZM43.35 11.75H32.85V12.75H43.35V11.75ZM46.5 12.25H46V12.75H46.5V12.25ZM46.5 0V-0.5H46V0H46.5ZM57 0H57.5V-0.5H57V0ZM57 1.75H56.5V2.25H57V1.75ZM58.75 1.75H59.25V1.25H58.75V1.75ZM58.75 5.25V5.75H59.25V5.25H58.75ZM57 5.25V4.75H56.5V5.25H57ZM57 7H56.5V7.5H57V7ZM58.75 7H59.25V6.5H58.75V7ZM58.75 10.5V11H59.25V10.5H58.75ZM57 10.5V10H56.5V10.5H57ZM57 12.25V12.75H57.5V12.25H57ZM50 5.25H49.5V5.75H50V5.25ZM55.25 5.25V5.75H55.75V5.25H55.25ZM55.25 1.75H55.75V1.25H55.25V1.75ZM50 1.75V1.25H49.5V1.75H50ZM50 10.5H49.5V11H50V10.5ZM55.25 10.5V11H55.75V10.5H55.25ZM55.25 7H55.75V6.5H55.25V7ZM50 7V6.5H49.5V7H50ZM47 12.25V0H46V12.25H47ZM46.5 0.5H57V-0.5H46.5V0.5ZM56.5 0V1.75H57.5V0H56.5ZM57 2.25H58.75V1.25H57V2.25ZM58.25 1.75V5.25H59.25V1.75H58.25ZM58.75 4.75H57V5.75H58.75V4.75ZM56.5 5.25V7H57.5V5.25H56.5ZM57 7.5H58.75V6.5H57V7.5ZM58.25 7V10.5H59.25V7H58.25ZM58.75 10H57V11H58.75V10ZM56.5 10.5V12.25H57.5V10.5H56.5ZM57 11.75H46.5V12.75H57V11.75ZM50 5.75H55.25V4.75H50V5.75ZM55.75 5.25V1.75H54.75V5.25H55.75ZM55.25 1.25H50V2.25H55.25V1.25ZM49.5 1.75V5.25H50.5V1.75H49.5ZM50 11H55.25V10H50V11ZM55.75 10.5V7H54.75V10.5H55.75ZM55.25 6.5H50V7.5H55.25V6.5ZM49.5 7V10.5H50.5V7H49.5ZM61.9 12.25H61.4V12.75H61.9V12.25ZM61.9 3.5V3H61.4V3.5H61.9ZM63.65 3.5V4H64.15V3.5H63.65ZM63.65 1.75V1.25H63.15V1.75H63.65ZM65.4 1.75V2.25H65.9V1.75H65.4ZM65.4 0V-0.5H64.9V0H65.4ZM70.65 0H71.15V-0.5H70.65V0ZM70.65 1.75H70.15V2.25H70.65V1.75ZM72.4 1.75H72.9V1.25H72.4V1.75ZM72.4 3.5H71.9V4H72.4V3.5ZM74.15 3.5H74.65V3H74.15V3.5ZM74.15 12.25V12.75H74.65V12.25H74.15ZM70.65 12.25H70.15V12.75H70.65V12.25ZM70.65 8.75H71.15V8.25H70.65V8.75ZM65.4 8.75V8.25H64.9V8.75H65.4ZM65.4 12.25V12.75H65.9V12.25H65.4ZM65.4 7H64.9V7.5H65.4V7ZM70.65 7V7.5H71.15V7H70.65ZM70.65 3.5H71.15V3H70.65V3.5ZM68.9 3.5H68.4V4H68.9V3.5ZM68.9 1.75H69.4V1.25H68.9V1.75ZM67.15 1.75V1.25H66.65V1.75H67.15ZM67.15 3.5V4H67.65V3.5H67.15ZM65.4 3.5V3H64.9V3.5H65.4ZM62.4 12.25V3.5H61.4V12.25H62.4ZM61.9 4H63.65V3H61.9V4ZM64.15 3.5V1.75H63.15V3.5H64.15ZM63.65 2.25H65.4V1.25H63.65V2.25ZM65.9 1.75V0H64.9V1.75H65.9ZM65.4 0.5H70.65V-0.5H65.4V0.5ZM70.15 0V1.75H71.15V0H70.15ZM70.65 2.25H72.4V1.25H70.65V2.25ZM71.9 1.75V3.5H72.9V1.75H71.9ZM72.4 4H74.15V3H72.4V4ZM73.65 3.5V12.25H74.65V3.5H73.65ZM74.15 11.75H70.65V12.75H74.15V11.75ZM71.15 12.25V8.75H70.15V12.25H71.15ZM70.65 8.25H65.4V9.25H70.65V8.25ZM64.9 8.75V12.25H65.9V8.75H64.9ZM65.4 11.75H61.9V12.75H65.4V11.75ZM65.4 7.5H70.65V6.5H65.4V7.5ZM71.15 7V3.5H70.15V7H71.15ZM70.65 3H68.9V4H70.65V3ZM69.4 3.5V1.75H68.4V3.5H69.4ZM68.9 1.25H67.15V2.25H68.9V1.25ZM66.65 1.75V3.5H67.65V1.75H66.65ZM67.15 3H65.4V4H67.15V3ZM64.9 3.5V7H65.9V3.5H64.9ZM92.7 12.25H92.2V12.75H92.7V12.25ZM92.7 0V-0.5H92.2V0H92.7ZM96.2 0H96.7V-0.5H96.2V0ZM96.2 1.75H95.7V2.25H96.2V1.75ZM97.95 1.75H98.45V1.25H97.95V1.75ZM97.95 3.5H97.45V4H97.95V3.5ZM99.7 3.5V4H100.2V3.5H99.7ZM99.7 1.75V1.25H99.2V1.75H99.7ZM101.45 1.75V2.25H101.95V1.75H101.45ZM101.45 0V-0.5H100.95V0H101.45ZM104.95 0H105.45V-0.5H104.95V0ZM104.95 12.25V12.75H105.45V12.25H104.95ZM101.45 12.25H100.95V12.75H101.45V12.25ZM101.45 5.25H101.95V4.75H101.45V5.25ZM99.7 5.25V4.75H99.2V5.25H99.7ZM99.7 8.75V9.25H100.2V8.75H99.7ZM97.95 8.75H97.45V9.25H97.95V8.75ZM97.95 5.25H98.45V4.75H97.95V5.25ZM96.2 5.25V4.75H95.7V5.25H96.2ZM96.2 12.25V12.75H96.7V12.25H96.2ZM93.2 12.25V0H92.2V12.25H93.2ZM92.7 0.5H96.2V-0.5H92.7V0.5ZM95.7 0V1.75H96.7V0H95.7ZM96.2 2.25H97.95V1.25H96.2V2.25ZM97.45 1.75V3.5H98.45V1.75H97.45ZM97.95 4H99.7V3H97.95V4ZM100.2 3.5V1.75H99.2V3.5H100.2ZM99.7 2.25H101.45V1.25H99.7V2.25ZM101.95 1.75V0H100.95V1.75H101.95ZM101.45 0.5H104.95V-0.5H101.45V0.5ZM104.45 0V12.25H105.45V0H104.45ZM104.95 11.75H101.45V12.75H104.95V11.75ZM101.95 12.25V5.25H100.95V12.25H101.95ZM101.45 4.75H99.7V5.75H101.45V4.75ZM99.2 5.25V8.75H100.2V5.25H99.2ZM99.7 8.25H97.95V9.25H99.7V8.25ZM98.45 8.75V5.25H97.45V8.75H98.45ZM97.95 4.75H96.2V5.75H97.95V4.75ZM95.7 5.25V12.25H96.7V5.25H95.7ZM96.2 11.75H92.7V12.75H96.2V11.75ZM108.1 12.25H107.6V12.75H108.1V12.25ZM108.1 3.5V3H107.6V3.5H108.1ZM109.85 3.5V4H110.35V3.5H109.85ZM109.85 1.75V1.25H109.35V1.75H109.85ZM111.6 1.75V2.25H112.1V1.75H111.6ZM111.6 0V-0.5H111.1V0H111.6ZM116.85 0H117.35V-0.5H116.85V0ZM116.85 1.75H116.35V2.25H116.85V1.75ZM118.6 1.75H119.1V1.25H118.6V1.75ZM118.6 3.5H118.1V4H118.6V3.5ZM120.35 3.5H120.85V3H120.35V3.5ZM120.35 12.25V12.75H120.85V12.25H120.35ZM116.85 12.25H116.35V12.75H116.85V12.25ZM116.85 8.75H117.35V8.25H116.85V8.75ZM111.6 8.75V8.25H111.1V8.75H111.6ZM111.6 12.25V12.75H112.1V12.25H111.6ZM111.6 7H111.1V7.5H111.6V7ZM116.85 7V7.5H117.35V7H116.85ZM116.85 3.5H117.35V3H116.85V3.5ZM115.1 3.5H114.6V4H115.1V3.5ZM115.1 1.75H115.6V1.25H115.1V1.75ZM113.35 1.75V1.25H112.85V1.75H113.35ZM113.35 3.5V4H113.85V3.5H113.35ZM111.6 3.5V3H111.1V3.5H111.6ZM108.6 12.25V3.5H107.6V12.25H108.6ZM108.1 4H109.85V3H108.1V4ZM110.35 3.5V1.75H109.35V3.5H110.35ZM109.85 2.25H111.6V1.25H109.85V2.25ZM112.1 1.75V0H111.1V1.75H112.1ZM111.6 0.5H116.85V-0.5H111.6V0.5ZM116.35 0V1.75H117.35V0H116.35ZM116.85 2.25H118.6V1.25H116.85V2.25ZM118.1 1.75V3.5H119.1V1.75H118.1ZM118.6 4H120.35V3H118.6V4ZM119.85 3.5V12.25H120.85V3.5H119.85ZM120.35 11.75H116.85V12.75H120.35V11.75ZM117.35 12.25V8.75H116.35V12.25H117.35ZM116.85 8.25H111.6V9.25H116.85V8.25ZM111.1 8.75V12.25H112.1V8.75H111.1ZM111.6 11.75H108.1V12.75H111.6V11.75ZM111.6 7.5H116.85V6.5H111.6V7.5ZM117.35 7V3.5H116.35V7H117.35ZM116.85 3H115.1V4H116.85V3ZM115.6 3.5V1.75H114.6V3.5H115.6ZM115.1 1.25H113.35V2.25H115.1V1.25ZM112.85 1.75V3.5H113.85V1.75H112.85ZM113.35 3H111.6V4H113.35V3ZM111.1 3.5V7H112.1V3.5H111.1ZM125.25 12.25H124.75V12.75H125.25V12.25ZM125.25 10.5V10H124.75V10.5H125.25ZM128.75 10.5V11H129.25V10.5H128.75ZM128.75 1.75H129.25V1.25H128.75V1.75ZM125.25 1.75H124.75V2.25H125.25V1.75ZM125.25 0V-0.5H124.75V0H125.25ZM135.75 0H136.25V-0.5H135.75V0ZM135.75 1.75V2.25H136.25V1.75H135.75ZM132.25 1.75V1.25H131.75V1.75H132.25ZM132.25 10.5H131.75V11H132.25V10.5ZM135.75 10.5H136.25V10H135.75V10.5ZM135.75 12.25V12.75H136.25V12.25H135.75ZM125.75 12.25V10.5H124.75V12.25H125.75ZM125.25 11H128.75V10H125.25V11ZM129.25 10.5V1.75H128.25V10.5H129.25ZM128.75 1.25H125.25V2.25H128.75V1.25ZM125.75 1.75V0H124.75V1.75H125.75ZM125.25 0.5H135.75V-0.5H125.25V0.5ZM135.25 0V1.75H136.25V0H135.25ZM135.75 1.25H132.25V2.25H135.75V1.25ZM131.75 1.75V10.5H132.75V1.75H131.75ZM132.25 11H135.75V10H132.25V11ZM135.25 10.5V12.25H136.25V10.5H135.25ZM135.75 11.75H125.25V12.75H135.75V11.75ZM140.65 12.25H140.15V12.75H140.65V12.25ZM140.65 10.5H141.15V10H140.65V10.5ZM138.9 10.5H138.4V11H138.9V10.5ZM138.9 8.75V8.25H138.4V8.75H138.9ZM142.4 8.75H142.9V8.25H142.4V8.75ZM142.4 10.5H141.9V11H142.4V10.5ZM147.65 10.5V11H148.15V10.5H147.65ZM147.65 7H148.15V6.5H147.65V7ZM140.65 7H140.15V7.5H140.65V7ZM140.65 5.25H141.15V4.75H140.65V5.25ZM138.9 5.25H138.4V5.75H138.9V5.25ZM138.9 1.75V1.25H138.4V1.75H138.9ZM140.65 1.75V2.25H141.15V1.75H140.65ZM140.65 0V-0.5H140.15V0H140.65ZM149.4 0H149.9V-0.5H149.4V0ZM149.4 1.75H148.9V2.25H149.4V1.75ZM151.15 1.75H151.65V1.25H151.15V1.75ZM151.15 3.5V4H151.65V3.5H151.15ZM147.65 3.5H147.15V4H147.65V3.5ZM147.65 1.75H148.15V1.25H147.65V1.75ZM142.4 1.75V1.25H141.9V1.75H142.4ZM142.4 5.25H141.9V5.75H142.4V5.25ZM149.4 5.25H149.9V4.75H149.4V5.25ZM149.4 7H148.9V7.5H149.4V7ZM151.15 7H151.65V6.5H151.15V7ZM151.15 10.5V11H151.65V10.5H151.15ZM149.4 10.5V10H148.9V10.5H149.4ZM149.4 12.25V12.75H149.9V12.25H149.4ZM141.15 12.25V10.5H140.15V12.25H141.15ZM140.65 10H138.9V11H140.65V10ZM139.4 10.5V8.75H138.4V10.5H139.4ZM138.9 9.25H142.4V8.25H138.9V9.25ZM141.9 8.75V10.5H142.9V8.75H141.9ZM142.4 11H147.65V10H142.4V11ZM148.15 10.5V7H147.15V10.5H148.15ZM147.65 6.5H140.65V7.5H147.65V6.5ZM141.15 7V5.25H140.15V7H141.15ZM140.65 4.75H138.9V5.75H140.65V4.75ZM139.4 5.25V1.75H138.4V5.25H139.4ZM138.9 2.25H140.65V1.25H138.9V2.25ZM141.15 1.75V0H140.15V1.75H141.15ZM140.65 0.5H149.4V-0.5H140.65V0.5ZM148.9 0V1.75H149.9V0H148.9ZM149.4 2.25H151.15V1.25H149.4V2.25ZM150.65 1.75V3.5H151.65V1.75H150.65ZM151.15 3H147.65V4H151.15V3ZM148.15 3.5V1.75H147.15V3.5H148.15ZM147.65 1.25H142.4V2.25H147.65V1.25ZM141.9 1.75V5.25H142.9V1.75H141.9ZM142.4 5.75H149.4V4.75H142.4V5.75ZM148.9 5.25V7H149.9V5.25H148.9ZM149.4 7.5H151.15V6.5H149.4V7.5ZM150.65 7V10.5H151.65V7H150.65ZM151.15 10H149.4V11H151.15V10ZM148.9 10.5V12.25H149.9V10.5H148.9ZM149.4 11.75H140.65V12.75H149.4V11.75ZM176.7 12.25H176.2V12.75H176.7V12.25ZM176.7 8.75H177.2V8.25H176.7V8.75ZM169.7 8.75H169.2V9.25H169.7V8.75ZM169.7 3.5V3H169.2V3.5H169.7ZM176.7 3.5V4H177.2V3.5H176.7ZM176.7 0V-0.5H176.2V0H176.7ZM178.45 0H178.95V-0.5H178.45V0ZM178.45 1.75H177.95V2.25H178.45V1.75ZM180.2 1.75H180.7V1.25H180.2V1.75ZM180.2 3.5H179.7V4H180.2V3.5ZM181.95 3.5H182.45V3H181.95V3.5ZM181.95 5.25H181.45V5.75H181.95V5.25ZM183.7 5.25H184.2V4.75H183.7V5.25ZM183.7 7V7.5H184.2V7H183.7ZM181.95 7V6.5H181.45V7H181.95ZM181.95 8.75V9.25H182.45V8.75H181.95ZM180.2 8.75V8.25H179.7V8.75H180.2ZM180.2 10.5V11H180.7V10.5H180.2ZM178.45 10.5V10H177.95V10.5H178.45ZM178.45 12.25V12.75H178.95V12.25H178.45ZM177.2 12.25V8.75H176.2V12.25H177.2ZM176.7 8.25H169.7V9.25H176.7V8.25ZM170.2 8.75V3.5H169.2V8.75H170.2ZM169.7 4H176.7V3H169.7V4ZM177.2 3.5V0H176.2V3.5H177.2ZM176.7 0.5H178.45V-0.5H176.7V0.5ZM177.95 0V1.75H178.95V0H177.95ZM178.45 2.25H180.2V1.25H178.45V2.25ZM179.7 1.75V3.5H180.7V1.75H179.7ZM180.2 4H181.95V3H180.2V4ZM181.45 3.5V5.25H182.45V3.5H181.45ZM181.95 5.75H183.7V4.75H181.95V5.75ZM183.2 5.25V7H184.2V5.25H183.2ZM183.7 6.5H181.95V7.5H183.7V6.5ZM181.45 7V8.75H182.45V7H181.45ZM181.95 8.25H180.2V9.25H181.95V8.25ZM179.7 8.75V10.5H180.7V8.75H179.7ZM180.2 10H178.45V11H180.2V10ZM177.95 10.5V12.25H178.95V10.5H177.95ZM178.45 11.75H176.7V12.75H178.45V11.75Z" fill="black"></path>
</svg>
